<svg width="226" height="232" viewBox="0 0 226 232" fill="none" xmlns="http://www.w3.org/2000/svg">
<rect width="225.5" height="232" rx="4" fill="#FFDCAB"/>
<mask id="mask0_5129_34582" style="mask-type:alpha" maskUnits="userSpaceOnUse" x="0" y="0" width="226" height="232">
<rect width="225.5" height="232" rx="4" fill="white"/>
</mask>
<g mask="url(#mask0_5129_34582)">
<ellipse opacity="0.505766" cx="68.2942" cy="211.796" rx="103.687" ry="1.2037" fill="#FFC26F"/>
<path d="M154.298 176.889H-20.1206V199.965L-13.5557 200.517L-12.2797 200.622L-8.75645 200.914L24.3007 202.983L111.618 204.97H145.125C145.125 204.97 145.382 204.97 145.855 204.97C145.986 204.977 146.118 204.977 146.249 204.97C146.586 204.97 146.907 204.97 147.244 204.97H147.846H148.504C148.993 204.97 149.499 204.913 149.981 204.913C150.245 204.913 150.526 204.913 150.783 204.872C151.634 204.872 152.533 204.775 153.472 204.743H154.274L154.298 176.889Z" fill="#201204"/>
<path d="M170.367 195.568C170.372 197.472 170.241 199.374 169.972 201.259C170.31 201.751 171.324 202.065 170.592 203.065C170.198 203.145 169.787 203.218 169.385 203.274C168.693 203.387 167.961 203.5 167.188 203.597C162.864 204.196 158.51 204.562 154.146 204.693C153.204 204.693 152.303 204.782 151.45 204.822C151.169 204.822 150.887 204.822 150.646 204.862C150.163 204.862 149.656 204.862 149.165 204.919H148.505H147.902C147.564 204.919 147.242 204.919 146.904 204.919C146.773 204.926 146.641 204.926 146.51 204.919C146.035 204.919 145.778 204.919 145.778 204.919C145.474 204.245 145.368 203.499 145.472 202.767C145.416 199.881 145.697 196.979 144.893 194.174C144.893 194.02 144.812 193.883 144.78 193.754C142.592 187.064 138.231 182.727 131.19 181.574C124.58 180.452 117.946 183.43 114.382 189.119C113.262 190.977 112.549 193.051 112.29 195.205C112.184 196.007 112.141 196.815 112.161 197.624C112.201 199.986 112.161 202.339 112.161 204.975L24.6196 203.041C24.6196 201.211 24.6196 199.55 24.6196 197.914C24.6007 195.886 24.289 193.871 23.6943 191.933C22.3924 187.771 19.3592 184.377 15.3747 182.622C12.6204 181.305 9.56485 180.748 6.52396 181.01C6.05729 181.01 5.59061 181.115 5.13198 181.187C-0.343334 182.043 -4.98763 185.675 -7.14636 190.788C-8.04782 192.937 -8.51545 195.244 -8.52224 197.575C-8.52224 198.639 -8.52224 199.703 -8.52224 200.985L-12.0545 200.695L-13.3338 200.59C-20.1006 200.026 -30.3674 199.171 -36.5066 198.68C-37.5445 194.109 -36.6836 187.306 -36.2893 184.75C-36.2014 184.16 -35.6942 183.724 -35.0985 183.726H-31.5824C-31.3333 183.726 -31.0986 183.61 -30.9467 183.412L-26.5133 177.769C-22.1041 171.659 -24.8317 169.579 -27.1651 168.015C-29.3616 166.597 -29.1846 164.936 -28.9513 164.283C-28.8864 164.088 -28.7057 163.956 -28.5007 163.953L-12.2074 163.574C-9.64791 162.253 -7.00908 161.093 -4.30609 160.1C-0.588791 158.681 4.83428 156.875 10.024 155.174C17.7161 152.667 24.8288 150.499 25.2794 150.426H25.3518C32.2507 149.365 39.2196 148.826 46.1993 148.814C53.0304 148.814 59.8776 148.661 66.6605 149.467C70.9419 150.028 75.1791 150.887 79.3411 152.039C91.6114 155.303 102.828 161.035 113.939 166.895C116.082 168.125 118.529 168.72 120.996 168.612C124.142 168.483 127.344 169.12 130.522 169.539C138.802 170.595 147.009 172.078 154.87 175.021C158.484 176.254 161.856 178.112 164.831 180.51C166.142 181.606 166.842 183.13 167.655 184.541C168.468 185.951 168.685 187.539 170.157 188.466C170.275 188.535 170.379 188.625 170.463 188.732C170.829 189.23 171.041 189.824 171.075 190.441V190.635C171.212 191.942 171.212 193.261 171.075 194.569L170.359 195.375L170.367 195.568Z" fill="white"/>
<path d="M61.5024 169.409L57.0415 152.815C70.4637 153.588 83.4982 157.656 95.0198 164.667C98.7895 166.944 102.053 169.14 102.053 169.14L94.4652 171.272L61.5024 169.409Z" fill="#36404B"/>
<path d="M53.0854 152.815C53.6031 158.257 54.1045 163.461 54.6302 168.864L25.6266 167.321C25.3759 163.74 25.1333 160.263 24.8906 156.754C33.9735 152.886 43.4769 152.942 53.0854 152.815Z" fill="#36404B"/>
<path d="M146.26 177.809C148.4 177.598 150.559 177.671 152.678 178.026C156.427 178.61 160.047 179.791 163.386 181.521C165.593 182.598 166.713 184.395 167.962 186.519C162.218 186.03 156.474 186.642 151.615 183.07C148.637 180.87 146.414 178.824 146.26 177.809Z" fill="#BBBDC2"/>
<path d="M23.4272 156.827L24.0867 167.251C20.9464 167.318 17.806 166.952 14.7364 166.861C14.1842 165.501 14.4193 163.926 15.3409 162.812C17.6655 160.307 20.4068 158.278 23.4272 156.827V156.827Z" fill="#36404B"/>
<path d="M165.416 194.768C165.638 196.157 165.585 197.578 165.261 198.947C165.192 199.664 164.582 200.198 163.878 200.158C161.587 200.158 159.287 200.158 156.709 200.158C157.382 198.522 158.187 196.945 159.115 195.445C159.318 195.09 159.646 194.827 160.032 194.709C161.82 194.47 163.633 194.489 165.416 194.768Z" fill="#FDFDFD"/>
<path d="M63.9855 176.086H70.9812C71.239 176.095 71.4556 176.281 71.5009 176.532C71.5462 176.783 71.4078 177.031 71.169 177.128L70.9812 177.192C70.6874 177.305 70.3935 177.346 70.1078 177.426L69.2343 177.564C68.0623 177.722 66.8745 177.733 65.6997 177.596L64.8834 177.434C64.5977 177.354 64.3038 177.305 64.01 177.192L63.8222 177.12C63.6858 177.071 63.5755 176.969 63.5169 176.838C63.4584 176.707 63.4566 176.558 63.512 176.425C63.5887 176.23 63.774 176.098 63.9855 176.086Z" fill="#BBBDC2"/>
<path d="M23.0716 174.485H29.9814C30.2404 174.483 30.463 174.67 30.5088 174.928C30.5546 175.186 30.4104 175.44 30.167 175.53L29.9814 175.603C29.6908 175.709 29.4002 175.758 29.1177 175.84L28.2539 175.971C27.6814 176.049 27.1042 176.087 26.5265 176.085C25.9491 176.093 25.3719 176.061 24.799 175.987L23.8788 175.856C23.5866 175.791 23.2983 175.709 23.0151 175.612L22.8214 175.538C22.5467 175.428 22.4101 175.115 22.5146 174.836C22.5985 174.603 22.8282 174.458 23.0716 174.485Z" fill="#BBBDC2"/>
<path d="M128.585 212.198C122.728 212.201 117.447 208.677 115.208 203.273C112.969 197.869 114.216 191.651 118.364 187.523C122.513 183.394 128.746 182.171 134.151 184.424C139.557 186.677 143.068 191.962 143.045 197.81C142.992 205.753 136.542 212.171 128.585 212.198Z" fill="#3D454C"/>
<path d="M128.601 208.185C124.369 208.195 120.55 205.655 118.927 201.753C117.305 197.85 118.2 193.356 121.195 190.371C124.19 187.386 128.692 186.499 132.598 188.125C136.504 189.75 139.043 193.568 139.026 197.793C139 203.528 134.346 208.168 128.601 208.185Z" fill="#F2F2F2"/>
<path d="M126.166 190.573C127.589 189.484 129.526 189.445 130.989 190.476C130.548 191.418 129.656 192.049 128.644 192.134C127.448 192.182 126.854 191.329 126.166 190.573Z" fill="#030303"/>
<path d="M130.989 205.008C129.542 206.034 127.613 206.034 126.166 205.008C127.328 202.824 129.668 202.824 130.989 205.008Z" fill="#030303"/>
<path d="M120.54 199.369C123.31 199.199 124.505 201.013 123.267 203.37C121.71 202.835 120.737 201.44 120.54 199.369Z" fill="#030303"/>
<path d="M120.551 196.148C120.419 194.477 121.42 192.897 123.092 192.136C124.595 194.157 123.455 195.971 120.551 196.148Z" fill="#030303"/>
<path d="M135.796 199.358C135.952 201.037 134.926 202.629 133.212 203.37C131.834 201.341 132.799 199.791 135.796 199.358Z" fill="#030303"/>
<path d="M133.036 192.136C134.769 192.875 135.852 194.432 135.81 196.124C134.752 196.253 133.698 195.864 133.062 195.11C132.261 194.187 132.657 193.195 133.036 192.136Z" fill="#030303"/>
<path d="M8.01149 212.198C2.15472 212.197 -3.12427 208.672 -5.36025 203.268C-7.59623 197.863 -6.34806 191.646 -2.19861 187.52C1.95083 183.393 8.18288 182.171 13.5872 184.425C18.9916 186.678 22.502 191.962 22.4792 197.81C22.4262 205.756 15.9707 212.176 8.01149 212.198Z" fill="#3D454C"/>
<path d="M8.01164 208.185C3.78184 208.185 -0.0306973 205.639 -1.64563 201.736C-3.26057 197.833 -2.3593 193.343 0.637309 190.363C3.63392 187.382 8.13468 186.5 12.0379 188.127C15.941 189.754 18.4766 193.57 18.4605 197.793C18.4387 203.539 13.7669 208.185 8.01164 208.185Z" fill="#F2F2F2"/>
<path d="M5.6001 190.573C7.02262 189.484 8.96015 189.445 10.4227 190.476C9.98475 191.42 9.09094 192.052 8.07786 192.134C6.88978 192.182 6.29575 191.329 5.6001 190.573Z" fill="#030303"/>
<path d="M10.4227 205.008C8.97594 206.034 7.04689 206.034 5.6001 205.008C6.75403 202.824 9.10168 202.824 10.4227 205.008Z" fill="#030303"/>
<path d="M-0.0263672 199.369C2.74827 199.199 3.93372 201.013 2.70532 203.37C1.1419 202.835 0.179798 201.44 -0.0263672 199.369Z" fill="#030303"/>
<path d="M-0.0166391 196.148C-0.136823 194.474 0.864824 192.897 2.53089 192.136C4.02994 194.142 2.87749 195.969 -0.0166391 196.148Z" fill="#030303"/>
<path d="M15.2302 199.358C15.3839 201.037 14.3577 202.627 12.642 203.37C11.2702 201.341 12.2365 199.791 15.2302 199.358Z" fill="#030303"/>
<path d="M12.4857 192.136C14.2041 192.88 15.2798 194.436 15.2445 196.127C14.2028 196.246 13.1691 195.861 12.5371 195.12C11.6803 194.188 12.083 193.196 12.4857 192.136Z" fill="#030303"/>
</g>
</svg>
