<svg width="226" height="232" viewBox="0 0 226 232" fill="none" xmlns="http://www.w3.org/2000/svg">
<rect x="0.5" width="225.5" height="232" rx="4" fill="#FFDCAB"/>
<mask id="mask0_5129_34603" style="mask-type:alpha" maskUnits="userSpaceOnUse" x="0" y="0" width="226" height="232">
<rect x="0.5" width="225.5" height="232" rx="4" fill="white"/>
</mask>
<g mask="url(#mask0_5129_34603)">
<ellipse opacity="0.505766" cx="49.3373" cy="216.737" rx="130.674" ry="1.01754" fill="#FFC26F"/>
<path d="M182.045 208.596V130.246H-69.2633C-70.3118 130.237 -71.3198 130.654 -72.0605 131.403C-72.8012 132.152 -73.2123 133.17 -73.2014 134.229V200.1C-73.2014 202.32 -71.8429 203.724 -69.2633 204.075L-32.5014 208.596H-18.932V201.88C-18.932 193.568 -12.2558 186.83 -4.02026 186.83C4.21527 186.83 10.8915 193.568 10.8915 201.88V208.596H137.092V201.88C137.092 193.568 143.768 186.83 152.003 186.83C160.239 186.83 166.915 193.568 166.915 201.88V208.596H182.045Z" fill="white"/>
<g opacity="0.1">
<path d="M136.929 208.597V201.792C136.928 199.738 137.335 197.704 138.124 195.815H9.78223C10.5688 197.705 10.9724 199.738 10.9688 201.792V208.597H136.929Z" fill="#676C73"/>
</g>
<path d="M187.79 208.596C167.111 208.596 137.145 208.491 137.145 208.491L141.676 192.408L131.199 130.246H184.958C186.938 130.243 188.588 131.77 188.752 133.755C188.756 133.779 188.756 133.804 188.752 133.828C189.351 143.307 190.831 168.216 191.139 187.156C191.187 189.99 191.204 198.605 191.195 205.152C191.187 207.044 189.67 208.579 187.79 208.596Z" fill="white"/>
<path d="M191.198 186.211C190.06 186.211 188.297 186.154 186.641 186.106C184.235 186.023 182.32 183.976 182.301 181.466L182.046 140.899C182.019 136.86 185.041 133.514 188.908 133.298V133.371C189.101 136.542 189.395 141.439 189.681 147.297C190.207 157.294 190.795 170.001 191.074 181.329C191.131 182.991 191.172 184.618 191.198 186.211Z" fill="#36404B"/>
<path d="M194.903 154.615L194.283 154.666C194.21 154.673 194.137 154.646 194.081 154.592C194.026 154.538 193.992 154.462 193.989 154.38L193.232 141.82C193.226 141.738 193.25 141.657 193.298 141.595C193.347 141.534 193.416 141.496 193.489 141.492L194.102 141.442C194.921 141.388 195.629 142.071 195.697 142.98L196.28 152.841C196.328 153.749 195.718 154.535 194.903 154.615Z" fill="#36404B"/>
<path d="M194.249 142.456L194.095 140.386C194.049 139.815 193.544 139.381 192.951 139.404L185.096 139.949" stroke="#36404B" stroke-width="1.67" stroke-linecap="round"/>
<g opacity="0.1">
<path d="M190.637 195.813C190.637 198.561 190.637 201.963 190.637 205.248C190.637 206.19 190.279 207.093 189.641 207.758C189.004 208.423 188.14 208.795 187.24 208.793H166.488V201.88C166.488 199.795 166.087 197.732 165.311 195.813H190.637Z" fill="#676C73"/>
</g>
<path d="M-48.3507 165.859C-49.5138 165.883 -50.5935 165.245 -51.1507 164.204L-63.6819 140.018C-64.2019 139.025 -64.168 137.826 -63.5926 136.865C-63.0149 135.905 -61.9862 135.324 -60.8819 135.333H127.703C128.875 135.324 129.955 135.982 130.503 137.039L143.034 161.216C143.555 162.2 143.521 163.393 142.945 164.344C142.368 165.303 141.337 165.879 140.234 165.859H-48.3507Z" fill="#36404B"/>
<path d="M171.312 135.334H139.492C138.45 135.313 137.465 135.815 136.855 136.675C136.174 137.649 136.096 138.932 136.652 139.986L151.105 164.13C151.657 165.196 152.745 165.863 153.929 165.86H175.463C176.852 165.86 177.977 164.715 177.977 163.302V142.113C177.977 138.369 174.993 135.334 171.312 135.334Z" fill="#36404B"/>
<path d="M6.11842 131.263C1.27038 130.391 -10.9548 128.315 -21.8306 126.702C-28.4138 125.761 -35.0431 125.246 -41.6833 125.158H-69.5515C-70.444 125.158 -71.1675 125.939 -71.1675 126.902V131.263H6.11842Z" fill="#C4C6CB"/>
<path fill-rule="evenodd" clip-rule="evenodd" d="M134.579 154.276C134.37 153.102 133.54 152.139 132.42 151.772C131.3 151.404 130.071 151.691 129.222 152.518C128.374 153.345 128.043 154.578 128.361 155.727L130.431 164.842H136.981L134.579 154.276ZM-42.1576 164.842H-48.271C-48.4301 164.846 -48.588 164.812 -48.7319 164.743L-50.7778 155.727C-51.0808 154.026 -50.0125 152.384 -48.3509 151.997C-46.6893 151.609 -45.0203 152.612 -44.5593 154.276L-42.1576 164.842ZM-18.238 154.276C-18.699 152.612 -20.368 151.609 -22.0296 151.997C-23.6912 152.384 -24.7595 154.026 -24.4565 155.727L-22.3863 164.842H-15.8444L-18.238 154.276ZM4.2917 151.997C5.9533 151.609 7.62233 152.612 8.08333 154.276L10.485 164.842H3.93499L1.86487 155.727C1.56184 154.026 2.6301 152.384 4.2917 151.997ZM34.3966 154.276C33.9356 152.612 32.2665 151.609 30.6049 151.997C28.9433 152.384 27.8751 154.026 28.1781 155.727L30.2482 164.842H36.7982L34.3966 154.276ZM56.9262 151.997C58.5879 151.609 60.2569 152.612 60.7179 154.276L63.1276 164.842H56.5776L54.4994 155.727C54.1964 154.026 55.2646 152.384 56.9262 151.997ZM87.0392 154.276C86.5305 152.676 84.8973 151.736 83.2807 152.114C81.664 152.493 80.6022 154.062 80.8369 155.727L82.907 164.842H89.457L87.0392 154.276ZM108.032 151.997C109.694 151.609 111.363 152.612 111.824 154.276L114.226 164.842H107.676L105.606 155.727C105.303 154.026 106.371 152.384 108.032 151.997ZM158.565 151.997C160.226 151.609 161.895 152.612 162.356 154.276L164.758 164.842H158.208L156.138 155.727C155.835 154.026 156.903 152.384 158.565 151.997Z" fill="#283038"/>
<rect x="37.6426" y="133.298" width="2.03384" height="32.5614" fill="white"/>
<rect x="89.5054" y="133.298" width="2.03383" height="32.5614" fill="white"/>
<path d="M166.791 208.597V202.003C166.791 193.843 160.19 187.228 152.046 187.228C143.902 187.228 137.301 193.843 137.301 202.003V208.597H166.791Z" fill="black"/>
<ellipse rx="13.9376" ry="13.923" transform="matrix(0.628104 -0.77813 0.777753 0.62857 152.392 202.885)" fill="#3D454C"/>
<ellipse rx="8.37609" ry="8.41631" transform="matrix(0.990256 -0.139257 0.139089 0.99028 151.715 203.001)" fill="white"/>
<path d="M152.055 211.649C148.555 211.652 145.398 209.544 144.06 206.308C142.721 203.072 143.465 199.348 145.943 196.876C148.421 194.403 152.145 193.67 155.375 195.018C158.605 196.367 160.703 199.532 160.69 203.033C160.662 207.79 156.808 211.635 152.055 211.649Z" fill="#F2F2F2"/>
<path d="M149.504 197.1C150.703 196.181 152.336 196.146 153.572 197.014C153.2 197.819 152.435 198.357 151.571 198.419C150.584 198.462 150.09 197.738 149.504 197.1Z" fill="#030303"/>
<path d="M153.572 208.963C152.351 209.831 150.724 209.831 149.504 208.963C150.474 207.118 152.457 207.118 153.572 208.963Z" fill="#030303"/>
<path d="M145.436 204.535C147.191 204.401 147.942 205.777 147.164 207.579C146.179 207.198 145.567 206.136 145.436 204.535Z" fill="#030303"/>
<path d="M146.461 201.474C146.376 200.201 147.01 198.999 148.069 198.421C149.02 199.955 148.291 201.302 146.461 201.474Z" fill="#030303"/>
<path d="M157.63 204.526C157.726 205.804 157.072 207.014 155.979 207.579C155.129 206.031 155.749 204.857 157.63 204.526Z" fill="#030303"/>
<path d="M155.894 198.421C156.983 198.984 157.664 200.168 157.639 201.454C156.971 201.556 156.305 201.259 155.907 200.681C155.392 199.974 155.639 199.223 155.894 198.421Z" fill="#030303"/>
<path d="M10.186 208.597V202.003C10.186 193.843 3.58427 187.228 -4.55935 187.228C-12.703 187.228 -19.3047 193.843 -19.3047 202.003V208.597H10.186Z" fill="black"/>
<ellipse cx="-4.46142" cy="203.035" rx="13.8594" ry="13.9286" fill="#3D454C"/>
<ellipse cx="-4.45425" cy="203.012" rx="8.37632" ry="8.41817" fill="white"/>
<path d="M-4.55924 211.649C-8.05832 211.649 -11.2122 209.538 -12.5481 206.302C-13.884 203.066 -13.1384 199.344 -10.6594 196.873C-8.18037 194.402 -4.45711 193.67 -1.22828 195.019C2.00056 196.368 4.09794 199.532 4.08445 203.033C4.05698 207.793 0.197775 211.64 -4.55924 211.649Z" fill="#F2F2F2"/>
<path d="M1.02343 204.526C1.12256 205.805 0.471829 207.017 -0.615234 207.579C-1.47951 206.031 -0.871058 204.857 1.02343 204.526Z" fill="#030303"/>
<path d="M-0.712451 198.421C0.377091 198.984 1.05845 200.168 1.03264 201.454C0.365183 201.556 -0.30102 201.259 -0.69871 200.681C-1.21399 199.974 -0.966657 199.223 -0.712451 198.421Z" fill="#030303"/>
</g>
</svg>
