<svg width="226" height="232" viewBox="0 0 226 232" fill="none" xmlns="http://www.w3.org/2000/svg">
<rect x="0.5" width="225.5" height="232" rx="4" fill="#FFDCAB"/>
<mask id="mask0_5108_62311" style="mask-type:alpha" maskUnits="userSpaceOnUse" x="0" y="0" width="226" height="232">
<rect x="0.5" width="225.5" height="232" rx="4" fill="white"/>
</mask>
<g mask="url(#mask0_5108_62311)">
</g>
<g clip-path="url(#clip0_5108_62311)">
<path opacity="0.5" d="M89.6631 218.999C27.8072 218.999 -22.3369 217.806 -22.3369 216.334C-22.3369 214.862 27.8072 213.668 89.6631 213.668C151.519 213.668 201.663 214.862 201.663 216.334C201.663 217.806 151.519 218.999 89.6631 218.999Z" fill="#FFC26F"/>
<path d="M-18.1248 179.248C-18.1248 179.248 -17.7186 189.447 -11.1971 197.444L-5.02602 196.86C-5.02602 196.86 -5.8252 175.832 12.3022 172.355C32.4901 168.482 42.1474 188.867 40.8821 199.529L42.9131 199.544L75.6909 199.794L129.035 200.202H129.188L134.31 200.244L135.792 200.253C135.742 199.294 134.799 177.543 153.167 173.345C174.991 168.35 183.882 191.301 181.687 200.804C181.687 200.804 200.102 200.688 200.102 190.142H183.133C183.133 190.142 180.357 172.318 161.3 170.148C142.244 167.978 134.634 188.868 134.634 188.868L130.864 188.715L76.4952 186.503L75.631 186.471L40.5257 185.044C40.5257 185.044 36.4942 174.396 25.8945 170.391C23.4978 169.495 20.9725 168.994 18.4165 168.907C2.19206 168.295 -3.98312 181.452 -3.98312 181.452L-11.715 180.246L-17.4139 179.36L-18.1248 179.248Z" fill="#F0F0F1"/>
<path d="M-16.1477 164.516C-14.7226 164.725 -13.2787 164.773 -11.843 164.66C-8.44742 164.401 -5.20943 163.117 -2.55542 160.975C-1.06875 159.774 -0.20457 158.667 0.0401611 158.325L-14.3056 157.366C-14.4345 157.723 -14.5868 158.181 -14.661 158.45L-16.1477 164.516Z" fill="#E2ECF1"/>
<path d="M34.7537 152.214L69.1106 153.72L67.4706 135.057C67.1284 135.066 53.6468 135.381 39.2513 136.058C39.0664 136.299 31.8423 145.608 34.7537 152.214Z" fill="#36404B"/>
<path d="M73.8074 135.071L78.8096 154.142L123.033 156.075V155.838C123.167 152.882 110.12 142.395 98.4207 137.695C90.8919 134.682 73.8074 135.071 73.8074 135.071Z" fill="#36404B"/>
<path d="M176.741 168.387C186.163 175.855 189.655 187.825 189.655 187.825L190.657 187.881L193.095 188.016L195.539 188.149L197.742 188.274L199.164 188.353C199.091 186.374 198.62 178.976 195.678 171.794L184.113 170.39C184.113 170.39 182.769 168.034 176.741 168.387Z" fill="white"/>
<path d="M-2.65274 136.772L0.488144 138.919C9.48535 136.37 27.2157 134.96 40.3835 134.23C49.7169 133.711 56.7562 133.53 56.7562 133.53C56.7562 133.53 61.2244 133.326 67.3173 133.242C68.3703 133.229 69.4742 133.219 70.6105 133.219C71.493 133.219 72.4028 133.219 73.3219 133.219C82.0743 133.261 92.0495 133.692 97.2274 135.213C107.675 138.287 130.823 156.421 130.823 156.421C136.194 156.885 154.437 156.421 171.757 159.434C186.735 162.038 191.308 164.892 191.705 165.151C190.43 163.84 188.896 162.811 187.203 162.129C171.979 155.949 144.554 154.068 140.093 154.133C140.901 154.659 141.681 155.229 142.429 155.838H136.079C136.079 155.838 104.266 135.613 99.826 134.167L102.532 133.726H102.537L103.406 133.587C103.406 133.587 85.3929 130.631 69.5747 131.039C69.5727 131.038 27.6595 131.849 -2.65274 136.772Z" fill="white"/>
<path d="M-9.34878 151.75C-7.26196 150.726 -5.12741 150.54 -3.9271 150.527L-1.63616 148.218L-0.450073 147.022L7.85864 138.626C12.6477 137.704 22.0755 136.976 32.0414 136.424C33.2289 136.356 34.4234 136.293 35.6251 136.234C36.8356 136.174 38.0501 136.114 39.2555 136.057C53.651 135.381 67.1326 135.066 67.4748 135.057L69.1108 153.72L74.0867 153.938L70.6046 133.216C69.4682 133.216 68.3644 133.226 67.3113 133.239C61.2184 133.319 56.7503 133.527 56.7503 133.527C56.7503 133.527 49.7109 133.708 40.3776 134.227C27.2098 134.96 9.47935 136.373 0.482132 138.915L2.94367 140.598L-9.34878 151.75Z" fill="black"/>
<path d="M99.8241 134.167C104.267 135.613 136.077 155.838 136.077 155.838H142.429C141.681 155.229 140.901 154.659 140.093 154.133C131.397 148.292 106.946 135.186 102.535 133.727H102.53L99.8241 134.167Z" fill="#36404B"/>
<path d="M135.794 200.248L138.738 200.271C138.506 199.036 138.39 197.782 138.392 196.526C138.392 185.293 147.468 176.184 158.658 176.184C169.849 176.184 178.921 185.293 178.921 196.526C178.921 197.964 178.771 199.399 178.473 200.806H181.687C183.882 191.303 174.991 168.352 153.169 173.34C134.8 177.538 135.743 199.289 135.794 200.248Z" fill="black"/>
<path d="M70.6117 133.216L74.0938 153.938L78.8097 154.142L73.8074 135.071L73.323 133.216C72.404 133.212 71.4941 133.212 70.6117 133.216Z" fill="black"/>
<path d="M73.323 133.216L73.8073 135.071C73.8073 135.071 90.8919 134.682 98.4197 137.7C110.119 142.395 123.166 152.886 123.032 155.842V156.079L130.824 156.422C130.824 156.422 107.671 138.288 97.2285 135.214C92.0506 133.689 82.0754 133.258 73.323 133.216Z" fill="#36404B"/>
<path d="M24.0983 160.659C39.9165 164.976 46.5405 180.347 46.5405 180.347L76.0242 181.404L129.329 183.305C129.893 182.192 130.623 180.876 131.533 179.452C133.909 175.726 137.498 171.271 142.429 167.863L131.655 167.141L75.2625 163.363L24.1582 159.942C24.1348 160.177 24.1166 160.419 24.0983 160.659Z" fill="white"/>
<path d="M-1.63634 148.222L25.0029 148.421L32.0453 136.424C22.0783 136.976 12.6495 137.704 7.86252 138.626L-0.450256 147.022L-1.63634 148.222Z" fill="#36404B"/>
<path d="M-5.0259 196.86L-2.6334 196.633V196.531C-2.6334 185.299 6.442 176.189 17.6327 176.189C28.8233 176.189 37.8937 185.299 37.8937 196.531C37.8937 196.734 37.8937 196.929 37.8845 197.124C37.8845 197.226 37.8845 197.319 37.8754 197.411C37.8663 197.602 37.8571 197.787 37.8429 197.968C37.8063 198.496 37.7505 199.02 37.6723 199.534H40.8802C42.1455 188.873 32.4882 168.485 12.3004 172.36C-5.82507 175.832 -5.0259 196.86 -5.0259 196.86Z" fill="black"/>
<path d="M134.311 200.239C135.364 204.712 141.465 207.577 141.724 207.692C140.248 205.443 139.235 202.92 138.745 200.271L135.8 200.248L134.311 200.239Z" fill="#36404B"/>
<path d="M34.8776 207.21C41.0528 205.774 42.9111 199.547 42.9111 199.547L40.8802 199.532H37.6702C37.6103 199.963 37.5311 200.385 37.4438 200.807C36.961 203.074 36.093 205.24 34.8776 207.21Z" fill="#36404B"/>
<path d="M34.7538 152.214C31.8425 145.608 39.0666 136.299 39.2555 136.057C38.0501 136.114 36.8356 136.174 35.6251 136.234L26.3385 151.846L34.7538 152.217V152.214Z" fill="#36404B"/>
<path d="M-3.92734 150.531C-3.59756 150.525 -3.26772 150.537 -2.93927 150.568L26.3382 151.846L35.6259 136.233C34.4255 136.293 33.231 136.357 32.0422 136.423L25.0029 148.42L-1.63639 148.221L-3.92734 150.531Z" fill="#36404B"/>
<path d="M-11.7099 180.245L-3.97803 181.451C-3.97803 181.451 2.19713 168.294 18.4216 168.906C20.9776 168.993 23.5029 169.494 25.8996 170.39C36.4993 174.395 40.5307 185.043 40.5307 185.043L75.6361 186.47L76.5003 186.502L130.869 188.714L134.639 188.867C134.639 188.867 142.255 167.982 161.306 170.147C180.356 172.312 183.133 190.142 183.133 190.142H200.102V188.404L199.164 188.353L197.742 188.274L195.539 188.149L193.09 188.015L190.653 187.88L189.651 187.824C189.651 187.824 186.159 175.855 176.737 168.387C176.376 168.1 176.003 167.817 175.62 167.548C173.957 166.343 172.161 165.335 170.267 164.545C168.047 163.618 165.709 163.008 163.321 162.731C161.006 162.451 158.667 162.426 156.347 162.658C153.369 162.957 150.455 163.718 147.709 164.915C145.858 165.724 144.09 166.711 142.429 167.863C137.496 171.271 133.908 175.726 131.529 179.452C130.616 180.879 129.889 182.192 129.326 183.305L76.024 181.404L46.5353 180.351C46.5353 180.351 39.9164 164.98 24.093 160.663C21.2641 159.898 18.3444 159.524 15.4147 159.551C-5.34081 159.653 -11.0864 178.006 -11.7099 180.245Z" fill="white"/>
<path d="M170.275 164.545C172.169 165.335 173.965 166.343 175.628 167.548C176.007 167.817 176.381 168.1 176.745 168.387C182.773 168.034 184.117 170.39 184.117 170.39L195.678 171.794C195.15 170.5 194.546 169.238 193.867 168.016C193.285 166.977 192.568 166.02 191.735 165.17L182.964 164.915L177.537 164.758L170.275 164.545Z" fill="#E2ECF1"/>
<path d="M-14.3146 157.364H-14.3055L0.040329 158.323L24.1581 159.941L75.2624 163.363L131.655 167.141L142.429 167.863C144.09 166.711 145.858 165.724 147.709 164.915C150.456 163.718 153.371 162.956 156.351 162.658C158.672 162.426 161.01 162.451 163.325 162.731C165.714 163.008 168.052 163.618 170.271 164.545L177.527 164.758L182.954 164.915L191.724 165.17C191.724 165.165 191.719 165.165 191.715 165.161C191.711 165.157 191.706 165.161 191.701 165.151C191.304 164.887 186.731 162.036 171.754 159.431C154.434 156.418 136.191 156.883 130.82 156.418L123.033 156.075L78.8106 154.138L74.0946 153.934L69.1187 153.716L34.7567 152.214L26.3384 151.846L-2.93912 150.567C-3.26756 150.536 -3.59741 150.524 -3.92719 150.53C-5.12749 150.539 -7.26202 150.725 -9.34886 151.753C-11.2245 152.67 -13.0625 154.261 -14.1704 157.005C-14.1887 157.052 -14.208 157.107 -14.2303 157.158C-14.2526 157.209 -14.2912 157.294 -14.3146 157.364Z" fill="white"/>
<path d="M-17.4085 179.359L-11.7096 180.245C-11.0861 178.003 -5.34044 159.656 15.4202 159.547C18.3499 159.52 21.2696 159.894 24.0985 160.659C24.1168 160.419 24.1351 160.177 24.1584 159.941L0.0406342 158.323C-0.204098 158.666 -1.06828 159.774 -2.55496 160.973C-5.20898 163.115 -8.44699 164.399 -11.8426 164.658C-13.2783 164.771 -14.7222 164.723 -16.1473 164.514C-16.2488 164.505 -16.3504 164.486 -16.4519 164.472C-16.4478 164.474 -18.4798 172.462 -17.4085 179.359Z" fill="white"/>
<path d="M188.486 177.955L195.539 178.493C195.663 178.901 195.769 179.286 195.867 179.656C197.455 185.832 195.539 188.149 195.539 188.149L197.742 188.274C197.742 188.274 197.802 181.58 196.499 178.081C196.393 177.8 196.215 177.551 195.983 177.359C195.752 177.168 195.475 177.039 195.179 176.988C193.877 176.746 191.443 176.347 189.716 176.376C189.525 176.38 189.337 176.427 189.166 176.513C188.996 176.599 188.846 176.722 188.728 176.873C188.611 177.024 188.528 177.199 188.486 177.386C188.444 177.574 188.444 177.768 188.486 177.955Z" fill="white"/>
<path d="M188.486 177.955L188.768 179.248L193.632 179.526L195.872 179.656C195.77 179.286 195.669 178.897 195.544 178.493L188.486 177.955Z" fill="white"/>
<path d="M193.095 188.015L195.539 188.149C195.539 188.149 197.455 185.832 195.867 179.656L193.627 179.526C193.627 179.526 195.077 186.045 193.095 188.015Z" fill="#F0F0F1"/>
<path d="M188.768 179.248L190.657 187.88L193.094 188.015C195.076 186.045 193.631 179.526 193.631 179.526L188.768 179.248Z" fill="#36404B"/>
<path d="M129.037 200.198C129.04 200.241 129.052 200.282 129.072 200.32C129.118 200.362 129.155 200.279 129.18 200.235C129.21 200.168 129.237 200.1 129.259 200.031C129.399 199.582 129.515 199.127 129.606 198.666C129.853 197.48 130.163 195.773 130.446 193.714C130.729 191.656 131.029 189.248 131.258 186.659C131.488 184.07 131.678 181.305 131.804 178.535C131.905 175.764 131.948 172.992 131.919 170.393C131.891 167.794 131.761 165.369 131.615 163.296C131.469 161.223 131.256 159.501 131.107 158.302C130.958 157.102 130.831 156.417 130.831 156.417L131.018 158.311C131.133 159.517 131.252 161.242 131.358 163.314C131.464 165.386 131.512 167.806 131.522 170.398C131.533 172.99 131.472 175.755 131.347 178.518C131.245 181.282 131.074 184.043 130.863 186.628C130.653 189.212 130.438 191.622 130.194 193.683C129.95 195.744 129.733 197.454 129.523 198.652C129.421 199.247 129.33 199.715 129.241 200.026C129.222 200.095 129.199 200.163 129.172 200.23C129.15 200.278 129.116 200.352 129.081 200.317C129.058 200.281 129.043 200.24 129.037 200.198Z" fill="#F0F0F1"/>
<path d="M35.6282 136.233C34.8158 137.508 34.0176 138.797 33.2113 140.079L30.8341 143.953C30.0379 145.24 29.2631 146.54 28.4822 147.838L26.1466 151.73V151.739V151.746C25.8018 152.477 25.5033 153.229 25.2529 153.997C25.1159 154.375 25.0133 154.765 24.8925 155.149C24.7716 155.533 24.6894 155.927 24.5878 156.315C24.4863 156.703 24.4192 157.102 24.3339 157.494C24.2486 157.887 24.2029 158.288 24.1308 158.685C24.0587 159.081 24.0293 159.482 23.9887 159.882C23.9481 160.283 23.9125 160.684 23.9135 161.087C23.9145 161.491 23.8881 161.891 23.8983 162.293L23.9602 163.499C23.9694 163.9 24.0537 164.297 24.0973 164.695C24.1394 165.095 24.2073 165.492 24.3004 165.883L24.5756 167.055L24.9595 168.194L25.1402 168.765L25.3911 169.31L25.8988 170.395L25.456 169.283L25.2316 168.731L25.0631 168.158L24.733 167.013L24.5127 165.842C24.4318 165.454 24.3761 165.061 24.3461 164.666C24.3146 164.27 24.2446 163.88 24.2446 163.482L24.2161 162.294C24.2161 161.899 24.2497 161.503 24.2639 161.108C24.2781 160.712 24.3248 160.319 24.3654 159.925C24.406 159.532 24.4416 159.137 24.5147 158.748C24.5878 158.359 24.6294 157.964 24.7178 157.578C24.8061 157.192 24.8782 156.803 24.9778 156.42C25.0773 156.037 25.1748 155.653 25.2915 155.274C25.4083 154.896 25.517 154.516 25.6561 154.145C25.9103 153.4 26.2042 152.669 26.5365 151.955L26.5284 151.969L28.8336 148.055C29.6084 146.749 30.3812 145.444 31.1316 144.129L33.3992 140.193C34.1425 138.873 34.897 137.56 35.6282 136.233Z" fill="#F0F0F1"/>
<path d="M110.966 146.161L110.215 155.516L118.362 155.873C118.362 155.873 123.206 156.012 123.033 152.999C122.86 149.987 117.375 145.466 110.966 146.161Z" fill="white"/>
<path d="M110.516 151.787L122.977 152.589C122.783 151.619 122.099 150.54 121.056 149.538L110.761 148.778L110.516 151.787Z" fill="#E2ECF1"/>
<path d="M84.0921 161.401C82.0355 161.401 80.3683 160.415 80.3683 159.2C80.3683 157.984 82.0355 156.998 84.0921 156.998C86.1487 156.998 87.8159 157.984 87.8159 159.2C87.8159 160.415 86.1487 161.401 84.0921 161.401Z" fill="#36404B"/>
<path d="M78.2168 159.484L89.6765 160.299C89.7861 160.307 89.8962 160.293 90.0004 160.258C90.1046 160.223 90.201 160.168 90.284 160.096C90.367 160.024 90.435 159.936 90.484 159.837C90.5331 159.738 90.5624 159.631 90.5701 159.521C90.578 159.411 90.5642 159.3 90.5295 159.195C90.4949 159.091 90.44 158.994 90.368 158.911C90.2961 158.827 90.2085 158.759 90.1102 158.709C90.0119 158.66 89.9049 158.631 89.7953 158.623L78.3356 157.807C78.2259 157.799 78.1157 157.813 78.0113 157.848C77.907 157.883 77.8105 157.938 77.7274 158.011C77.6443 158.083 77.5763 158.171 77.5271 158.27C77.4779 158.368 77.4487 158.476 77.4409 158.586C77.4256 158.808 77.4986 159.028 77.644 159.196C77.7894 159.364 77.9954 159.468 78.2168 159.484Z" fill="white"/>
<path d="M36.4322 158.639C34.3756 158.639 32.7084 157.653 32.7084 156.437C32.7084 155.222 34.3756 154.236 36.4322 154.236C38.4888 154.236 40.156 155.222 40.156 156.437C40.156 157.653 38.4888 158.639 36.4322 158.639Z" fill="#36404B"/>
<path d="M30.5569 156.722L42.0167 157.537C42.1263 157.545 42.2364 157.531 42.3406 157.496C42.4449 157.461 42.5412 157.406 42.6242 157.334C42.7072 157.261 42.7752 157.173 42.8243 157.075C42.8733 156.976 42.9026 156.869 42.9103 156.759C42.9182 156.649 42.9044 156.538 42.8697 156.433C42.835 156.329 42.7801 156.232 42.7082 156.149C42.6362 156.066 42.5486 155.997 42.4503 155.948C42.3521 155.899 42.2451 155.869 42.1355 155.862L30.6757 155.046C30.4543 155.03 30.2356 155.104 30.0679 155.25C29.9001 155.396 29.797 155.603 29.7811 155.825C29.7657 156.047 29.8388 156.266 29.9842 156.434C30.1297 156.603 30.3356 156.706 30.5569 156.722Z" fill="white"/>
<ellipse rx="20.7352" ry="20.7008" transform="matrix(0.626994 -0.779024 0.776855 0.629679 158.796 196.347)" fill="#3D454C"/>
<ellipse rx="20.892" ry="20.8573" transform="matrix(0.626994 -0.779024 0.776856 0.629679 17.384 196.347)" fill="#3D454C"/>
<path d="M158.699 209.416C153.426 209.421 148.67 206.234 146.654 201.345C144.637 196.456 145.757 190.828 149.491 187.092C153.225 183.356 158.836 182.248 163.702 184.286C168.568 186.324 171.73 191.105 171.709 196.397C171.668 203.585 165.861 209.395 158.699 209.416Z" fill="#F2F2F2"/>
<path d="M17.1796 209.416C11.9065 209.421 7.15086 206.234 5.13416 201.345C3.11745 196.456 4.23778 190.828 7.97179 187.092C11.7058 183.356 17.3165 182.248 22.1828 184.286C27.049 186.324 30.2104 191.105 30.1901 196.397C30.1488 203.585 24.3419 209.395 17.1796 209.416Z" fill="#F2F2F2"/>
<path d="M155.358 187.385C157.193 186.023 159.691 185.971 161.58 187.257C161.011 188.451 159.842 189.247 158.521 189.34C157.01 189.404 156.254 188.33 155.358 187.385Z" fill="#030303"/>
<path d="M161.58 204.966C159.713 206.252 157.225 206.252 155.358 204.966C156.842 202.231 159.875 202.231 161.58 204.966Z" fill="#030303"/>
<path d="M149.136 198.404C151.821 198.205 152.969 200.244 151.779 202.915C150.273 202.35 149.336 200.776 149.136 198.404Z" fill="#030303"/>
<path d="M150.703 193.867C150.574 191.981 151.544 190.199 153.164 189.343C154.617 191.616 153.503 193.613 150.703 193.867Z" fill="#030303"/>
<path d="M167.788 198.391C167.935 200.285 166.934 202.078 165.263 202.915C163.963 200.62 164.912 198.88 167.788 198.391Z" fill="#030303"/>
<path d="M165.132 189.343C166.799 190.177 167.841 191.932 167.802 193.837C166.781 193.989 165.761 193.548 165.153 192.692C164.365 191.644 164.743 190.531 165.132 189.343Z" fill="#030303"/>
<path d="M13.8388 187.385C15.6736 186.023 18.1716 185.971 20.061 187.257C19.4919 188.451 18.3227 189.247 17.0011 189.34C15.4904 189.404 14.735 188.33 13.8388 187.385Z" fill="#030303"/>
<path d="M20.061 204.966C18.194 206.252 15.7058 206.252 13.8388 204.966C15.3228 202.231 18.3558 202.231 20.061 204.966Z" fill="#030303"/>
<path d="M7.61658 198.404C10.3015 198.205 11.4491 200.244 10.2593 202.915C8.7537 202.349 7.81663 200.776 7.61658 198.404Z" fill="#030303"/>
<path d="M9.18355 193.867C9.05475 191.981 10.0244 190.199 11.6446 189.343C13.0979 191.616 11.9841 193.613 9.18355 193.867Z" fill="#030303"/>
<path d="M26.269 198.391C26.4157 200.285 25.4147 202.078 23.7438 202.915C22.4439 200.62 23.3922 198.88 26.269 198.391Z" fill="#030303"/>
<path d="M23.6127 189.343C25.2794 190.177 26.3216 191.932 26.2822 193.837C25.2612 193.989 24.2421 193.548 23.6337 192.692C22.8455 191.644 23.2239 190.531 23.6127 189.343Z" fill="#030303"/>
</g>
<defs>
<clipPath id="clip0_5108_62311">
<rect width="224" height="88" fill="white" transform="matrix(-1 0 0 1 201.663 131)"/>
</clipPath>
</defs>
</svg>
