<svg width="226" height="232" viewBox="0 0 226 232" fill="none" xmlns="http://www.w3.org/2000/svg">
<rect width="225.5" height="232" rx="4" fill="#FFDCAB"/>
<mask id="mask0_5129_34596" style="mask-type:alpha" maskUnits="userSpaceOnUse" x="0" y="0" width="226" height="232">
<rect width="225.5" height="232" rx="4" fill="white"/>
</mask>
<g mask="url(#mask0_5129_34596)">
<ellipse opacity="0.505766" cx="87.201" cy="217.705" rx="111.962" ry="1.29487" fill="#FFC26F"/>
<path d="M185.276 204.325L144.016 202.281L-23.0254 197.953L-5.32234 174.974L183.835 179.139L185.276 204.325Z" fill="#201204"/>
<ellipse rx="15.0671" ry="14.9861" transform="matrix(0.999329 -0.03662 0.0370173 0.999315 21.2733 203.292)" fill="#3D454C"/>
<ellipse rx="14.8017" ry="14.8187" transform="matrix(0.62961 -0.776912 0.780225 0.625499 165.806 203.5)" fill="#3D454C"/>
<rect width="42.8146" height="19.7684" rx="2.12" transform="matrix(-0.999776 -0.0211767 0.0214067 -0.999771 68.3247 160.03)" fill="#58636B"/>
<path d="M3.9641 198.387H-24.9844C-26.9443 198.392 -28.7766 197.419 -29.8655 195.795C-30.5606 194.741 -30.898 193.493 -30.8278 192.234L-28.3049 152.997L-27.5506 152.046C-27.5506 152.046 -25.2965 138.425 -22.8516 135.297L-20.4241 130.975H-21.5598C-21.5598 130.975 -14.9708 122.454 -13.2715 120.345C-11.5722 118.236 -8.13895 118.997 -8.13895 118.997H-2.57294C-2.48215 118.999 -2.40256 119.058 -2.37353 119.144L-1.61926 122.134L43.2903 122.074L45.2064 119.42C45.2982 119.291 45.4465 119.214 45.6052 119.213C79.3307 119.36 116.94 119.515 119.637 119.541C122.443 119.506 125.21 120.2 127.665 121.555L151.516 132.341C153.813 133.56 153.163 135.461 153.163 135.461C153.883 135.911 154.324 136.696 154.333 137.544L155.096 137.691C154.967 137.363 155.105 136.991 155.417 136.826C155.803 136.642 156.266 136.795 156.466 137.172L167.598 157.819C170.329 164.068 173.476 164.509 173.476 164.509C173.476 164.509 184.01 168.778 187.348 169.789C190.686 170.8 190.252 173.212 190.252 173.212C191.891 175.096 193.633 187.117 193.633 187.117C193.633 187.117 193.555 188.924 194.128 189.105C194.7 189.287 194.951 195.276 194.76 195.561C194.57 195.846 192.975 198.05 193.269 198.906C193.445 199.833 193.249 200.792 192.723 201.576C192.437 201.767 193.321 204.169 191.605 204.247C189.888 204.325 184.461 204.325 184.461 204.325C184.461 204.325 182.588 204.256 181.652 200.081C180.715 195.907 176.45 187.29 165.604 187.394C165.604 187.394 153.518 186.219 149.53 200.064C149.137 201.43 147.869 202.36 146.444 202.328L38.9381 199.623C38.0709 199.603 37.3074 199.048 37.0221 198.232C35.9123 194.999 32.115 187.117 21.4771 186.996C14.6436 186.687 8.3726 190.755 5.8888 197.108C5.56411 197.882 4.8055 198.386 3.9641 198.387Z" fill="white"/>
<rect width="44.1946" height="21.1669" rx="2.43" transform="matrix(-0.999776 -0.0211767 0.0214067 -0.999771 120.594 161.844)" fill="#36404B"/>
<rect width="44.2035" height="21.1711" rx="2.43" transform="matrix(-0.999802 -0.0198883 0.0201043 -0.999798 68.9565 160.811)" fill="#36404B"/>
<rect width="33.875" height="21.1669" rx="2.43" transform="matrix(-0.999776 -0.0211767 0.0214067 -0.999771 17.3462 160.315)" fill="#36404B"/>
<path d="M-20.6909 130.949L34.7457 131.822L123.306 131.4L141.012 133.337V133.538L123.566 132.714L34.4334 133.03L-21.2896 132.301L-20.6909 130.949Z" fill="#C4C6CB"/>
<path d="M126.946 141.177C127.394 140.703 128.014 140.438 128.66 140.445L144.493 140.785C145.449 140.804 146.235 141.558 146.31 142.528L147.947 162.365C147.999 162.952 147.802 163.533 147.406 163.963C147.009 164.392 146.452 164.629 145.873 164.615H145.659L131.163 162.757C129.176 162.514 127.641 160.865 127.511 158.834L126.26 142.999C126.229 142.321 126.478 141.661 126.946 141.177Z" fill="#36404B"/>
<path d="M148.769 141.3C149.325 140.735 150.096 140.425 150.895 140.445H151C152.671 140.483 154.179 141.446 154.897 142.933L163.325 161.324C163.718 162.178 163.65 163.17 163.144 163.965C162.637 164.76 161.76 165.251 160.808 165.273L152.996 165.479H152.822C150.987 165.456 149.477 164.05 149.35 162.247L147.962 143.438C147.909 142.645 148.203 141.867 148.769 141.3Z" fill="#36404B"/>
<rect width="4.07056" height="3.41847" rx="1.62" transform="matrix(-0.999776 -0.0211767 0.0214067 -0.999771 134.002 171.408)" fill="#C4C6CB"/>
<path d="M127.125 169.735L128.799 169.795L134.239 169.705L134.606 169.789H135.787L135.805 169.135L134.561 169.111L134.23 169.183L128.727 168.932L127.152 168.95L127.125 169.735Z" fill="#36404B"/>
<path d="M128.861 169.363C128.861 169.602 129.056 169.795 129.295 169.795C129.535 169.795 129.729 169.602 129.729 169.363C129.729 169.125 129.535 168.932 129.295 168.932C129.056 168.932 128.861 169.125 128.861 169.363Z" fill="white"/>
<rect width="5.95394" height="2.18402" rx="0.52" transform="matrix(-0.999776 -0.0211767 0.0214067 -0.999771 177.127 177.382)" fill="#F8AE4C"/>
<path d="M194.823 192.231L186.144 192.239L186.18 190.521L194.645 190.513L194.823 192.231Z" fill="#3D454C"/>
<path d="M153.101 135.265L153.163 135.084C149.176 134.008 145.115 133.203 141.012 132.675V132.865C145.094 133.395 149.133 134.197 153.101 135.265Z" fill="#C4C6CB"/>
<ellipse rx="7.1336" ry="7.09664" transform="matrix(0.990371 -0.138437 0.139913 0.990164 165.808 203.482)" fill="white"/>
<path d="M165.748 211.231C162.761 211.231 160.069 209.439 158.929 206.693C157.789 203.947 158.427 200.788 160.544 198.692C162.662 196.597 165.84 195.978 168.596 197.125C171.352 198.271 173.14 200.958 173.125 203.929C173.106 207.967 169.808 211.231 165.748 211.231Z" fill="#F2F2F2"/>
<path d="M164.446 198.885C165.471 198.109 166.863 198.079 167.918 198.812C167.601 199.495 166.95 199.951 166.214 200.007C165.37 200.044 164.94 199.428 164.446 198.885Z" fill="#030303"/>
<path d="M167.918 208.096C166.877 208.823 165.487 208.823 164.446 208.096C165.278 206.521 166.968 206.521 167.918 208.096Z" fill="#030303"/>
<path d="M160.975 204.332C162.455 204.221 163.114 205.384 162.455 206.915C161.604 206.588 161.086 205.695 160.975 204.332Z" fill="#030303"/>
<path d="M160.981 202.598C160.91 201.518 161.452 200.498 162.355 200.009C163.165 201.311 162.541 202.479 160.981 202.598Z" fill="#030303"/>
<path d="M170.513 204.325C170.599 205.409 170.045 206.437 169.117 206.915C168.375 205.6 168.895 204.606 170.513 204.325Z" fill="#030303"/>
<path d="M169.035 200.009C169.965 200.49 170.544 201.494 170.521 202.583C169.949 202.665 169.379 202.414 169.035 201.928C168.603 201.327 168.819 200.687 169.035 200.009Z" fill="#030303"/>
<ellipse rx="7.12854" ry="7.10172" transform="matrix(0.922071 -0.387022 0.390588 0.920566 21.2741 203.282)" fill="white"/>
<path d="M21.6723 210.368C18.6861 210.368 15.9944 208.577 14.8541 205.832C13.7139 203.087 14.35 199.929 16.4654 197.832C18.5808 195.736 21.7583 195.115 24.5141 196.259C27.2699 197.403 29.0604 200.087 29.0496 203.057C29.0299 207.097 25.7342 210.363 21.6723 210.368Z" fill="#F2F2F2"/>
<path d="M19.5029 198.889C20.5278 198.108 21.9193 198.078 22.9746 198.815C22.6594 199.502 22.0066 199.959 21.2702 200.007C20.4269 200.044 19.9963 199.434 19.5029 198.889Z" fill="#030303"/>
<path d="M22.9746 208.086C21.9344 208.826 20.5432 208.826 19.5029 208.086C20.3252 206.524 22.061 206.524 22.9746 208.086Z" fill="#030303"/>
<path d="M16.0312 204.332C17.5117 204.221 18.1705 205.392 17.5117 206.915C16.6382 206.612 16.1349 205.711 16.0312 204.332Z" fill="#030303"/>
<path d="M16.0371 202.598C15.9686 201.519 16.5096 200.499 17.4119 200.009C18.2219 201.295 17.5977 202.487 16.0371 202.598Z" fill="#030303"/>
<path d="M26.4374 204.325C26.5241 205.409 25.9689 206.437 25.0394 206.915C24.2998 205.608 24.8249 204.613 26.4374 204.325Z" fill="#030303"/>
<path d="M24.9751 200.009C25.8964 200.492 26.4697 201.496 26.4456 202.584C25.8799 202.663 25.3179 202.413 24.9751 201.93C24.5266 201.323 24.7325 200.685 24.9751 200.009Z" fill="#030303"/>
<path d="M178.333 183.71L128.243 183.728L-29.9514 181.017L-29.9688 181.872L105.276 184.254L128.608 184.47L178.333 183.71Z" fill="#C4C6CB"/>
<path d="M125.39 201.735C125.297 201.726 125.226 201.636 125.226 201.529L123.654 136.991H123.839L125.39 201.529V201.735Z" fill="#C4C6CB"/>
<path d="M154.031 137.855C154.031 137.855 136.776 136.048 131.453 136.078C126.13 136.108 -23.0254 135.265 -23.0254 135.265L154.031 137.855Z" fill="#C4C6CB"/>
<path d="M188.062 179.944C188.528 182.808 189.739 186.197 190.856 186.197C191.974 186.197 192.523 183.876 192.048 181.013C191.573 178.149 190.297 175.838 189.17 175.838C188.044 175.838 187.596 177.09 188.062 179.944Z" fill="white"/>
</g>
</svg>
